<?xml version="1.0" encoding="UTF-8" standalone="no"?>
<!-- Created with Inkscape (http://www.inkscape.org/) -->

<svg
   width="69.358948mm"
   height="68.916878mm"
   viewBox="0 0 69.358947 68.916877"
   version="1.1"
   id="svg5"
   sodipodi:docname="logo.svg"
   inkscape:version="1.2.1 (9c6d41e410, 2022-07-14)"
   xmlns:inkscape="http://www.inkscape.org/namespaces/inkscape"
   xmlns:sodipodi="http://sodipodi.sourceforge.net/DTD/sodipodi-0.dtd"
   xmlns="http://www.w3.org/2000/svg"
   xmlns:svg="http://www.w3.org/2000/svg">
  <sodipodi:namedview
     id="namedview206"
     pagecolor="#ffffff"
     bordercolor="#000000"
     borderopacity="0.25"
     inkscape:showpageshadow="2"
     inkscape:pageopacity="0.0"
     inkscape:pagecheckerboard="0"
     inkscape:deskcolor="#d1d1d1"
     inkscape:document-units="mm"
     showgrid="false"
     inkscape:zoom="3.9428235"
     inkscape:cx="123.76917"
     inkscape:cy="109.94659"
     inkscape:window-width="1974"
     inkscape:window-height="2090"
     inkscape:window-x="12"
     inkscape:window-y="12"
     inkscape:window-maximized="1"
     inkscape:current-layer="svg5" />
  <defs
     id="defs2" />
  <path
     id="path846"
     style="fill:none;stroke:#000000;stroke-width:2.67346"
     d="m 33.937925,18.255029 -17.823099,30.870512 35.646197,1e-6 z" />
  <path
     id="path788"
     style="fill:#389826;stroke-width:0.0688536"
     d="M 33.937924,33.916539 20.5706,26.198912 20.570599,10.763657 33.937924,3.0460279 47.305247,10.763656 v 15.435256 z" />
  <path
     id="path902"
     style="fill:#9558b2;stroke-width:0.0688536"
     d="m 51.761029,64.461642 -13.367324,-7.717628 -10e-7,-15.435255 13.367325,-7.717629 13.367323,7.717628 v 15.435256 z" />
  <path
     id="path904"
     style="fill:#cb3c33;stroke-width:0.0688536"
     d="M 16.686115,64.461643 3.3187915,56.744015 3.3187907,41.30876 16.686115,33.591131 30.053438,41.308759 V 56.744015 Z" />
  <g
     id="g1292"
     transform="matrix(0.89115493,0,0,0.89115493,-54.970032,-14.267866)"
     style="stroke:none">
    <path
       id="path1288"
       d="m 84.767116,28.088855 15,-8.660254 15.000004,8.660253 -15.000003,8.660254 z"
       style="fill:none;fill-opacity:1;stroke:none;stroke-width:0.08162" />
    <path
       id="circle1290"
       d="m 101.62606,27.015594 c 1.02666,0.592745 1.02666,1.553774 0,2.146519 -1.02667,0.592745 -2.691218,0.592745 -3.717882,0 -1.026665,-0.592745 -1.026665,-1.553774 0,-2.146519 1.026664,-0.592744 2.691212,-0.592745 3.717882,0 z"
       style="fill:#ffffff;fill-opacity:1;stroke:none;stroke-width:0.08162" />
  </g>
  <g
     id="g1308"
     transform="matrix(0.89115493,0,0,0.89115493,-66.586247,-17.32344)"
     style="stroke:none">
    <path
       id="path1302"
       d="m 93.443193,57.133244 14.999997,8.660254 -14.999996,8.660252 -15,-8.660252 z"
       style="fill:none;fill-opacity:1;stroke:none;stroke-width:0.08162" />
    <path
       id="circle1304"
       d="m 87.866378,66.86676 c -1.026664,0.592744 -2.691216,0.592744 -3.71788,0 -1.026664,-0.592745 -1.026665,-1.553774 -10e-7,-2.146519 1.026665,-0.592745 2.691216,-0.592745 3.71788,0 1.026665,0.592745 1.026665,1.553774 10e-7,2.146519 z"
       style="fill:#ffffff;fill-opacity:1;stroke:none;stroke-width:0.08162" />
    <path
       id="circle1306"
       d="m 102.73789,66.866757 c -1.02666,0.592744 -2.69121,0.592744 -3.717878,0 -1.026664,-0.592745 -1.026664,-1.553774 0,-2.146519 1.026668,-0.592745 2.691218,-0.592745 3.717878,0 1.02666,0.592745 1.02666,1.553774 0,2.146519 z"
       style="fill:#ffffff;fill-opacity:1;stroke:none;stroke-width:0.08162" />
  </g>
  <g
     id="g1320"
     transform="matrix(0.89115493,0,0,0.89115493,-28.868168,-17.323442)"
     style="stroke:none">
    <path
       id="path1312"
       d="m 90.477193,57.133244 14.999997,8.660254 -14.999996,8.660254 -15,-8.660254 z"
       style="fill:none;fill-opacity:1;stroke:none;stroke-width:0.08162" />
    <path
       id="circle1314"
       d="m 92.336135,66.866758 c -1.026664,0.592745 -2.691216,0.592745 -3.71788,0 -1.026664,-0.592745 -1.026664,-1.553774 0,-2.146519 1.026664,-0.592745 2.691215,-0.592745 3.717879,0 1.026665,0.592745 1.026665,1.553774 10e-7,2.146519 z"
       style="fill:#ffffff;fill-opacity:1;stroke:none;stroke-width:0.08162" />
    <path
       id="circle1316"
       d="m 84.900378,66.86676 c -1.026665,0.592745 -2.691216,0.592745 -3.71788,0 -1.026664,-0.592745 -1.026665,-1.553774 0,-2.146519 1.026664,-0.592745 2.691215,-0.592745 3.717879,0 1.026665,0.592745 1.026665,1.553774 10e-7,2.146519 z"
       style="fill:#ffffff;fill-opacity:1;stroke:none;stroke-width:0.08162" />
    <path
       id="circle1318"
       d="m 99.771886,66.866754 c -1.026664,0.592744 -2.691215,0.592744 -3.717879,0 -1.026665,-0.592745 -1.026665,-1.553774 -10e-7,-2.146519 1.026664,-0.592745 2.691215,-0.592745 3.717879,0 1.026665,0.592745 1.026665,1.553774 10e-7,2.146519 z"
       style="fill:#ffffff;fill-opacity:1;stroke:none;stroke-width:0.08162" />
  </g>
  <g
     id="g1357"
     transform="matrix(0.89115493,0,0,0.89115493,-128.777,-6.6800899)"
     style="stroke:none">
    <path
       id="path1345"
       d="m 182.58882,28.234567 15,-8.660254 v 17.320508 l -15,8.660254 z"
       style="fill:none;fill-opacity:1;stroke:none;stroke-width:0.08162" />
    <path
       id="circle1347"
       d="m 191.94776,31.491432 c 0,1.18549 -0.83227,2.627034 -1.85894,3.219779 -1.02666,0.592745 -1.85894,0.11223 -1.85894,-1.07326 0,-1.18549 0.83228,-2.627033 1.85894,-3.219778 1.02667,-0.592745 1.85894,-0.11223 1.85894,1.073259 z"
       style="fill:#ffffff;fill-opacity:1;stroke:none;stroke-width:0.08162" />
    <path
       id="circle1349"
       d="m 188.22988,37.930991 c 0,1.18549 -0.83228,2.627034 -1.85894,3.219779 -1.02667,0.592745 -1.85894,0.11223 -1.85894,-1.07326 0,-1.185489 0.83227,-2.627033 1.85894,-3.219778 1.02666,-0.592745 1.85894,-0.11223 1.85894,1.073259 z"
       style="fill:#ffffff;fill-opacity:1;stroke:none;stroke-width:0.08162" />
    <path
       id="circle1351"
       d="m 195.66564,25.051873 c 0,1.18549 -0.83227,2.627034 -1.85894,3.219779 -1.02666,0.592744 -1.85894,0.11223 -1.85894,-1.07326 0,-1.18549 0.83228,-2.627033 1.85894,-3.219778 1.02667,-0.592745 1.85894,-0.11223 1.85894,1.073259 z"
       style="fill:#ffffff;fill-opacity:1;stroke:none;stroke-width:0.08162" />
    <path
       id="circle1353"
       d="m 195.66564,33.63795 c 0,1.18549 -0.83227,2.627033 -1.85894,3.219778 -1.02666,0.592745 -1.85894,0.11223 -1.85894,-1.073259 0,-1.18549 0.83228,-2.627034 1.85894,-3.219779 1.02667,-0.592744 1.85894,-0.11223 1.85894,1.07326 z"
       style="fill:#ffffff;fill-opacity:1;stroke:none;stroke-width:0.08162" />
    <path
       id="circle1355"
       d="m 188.22988,29.344915 c 0,1.185489 -0.83228,2.627033 -1.85894,3.219778 -1.02667,0.592745 -1.85894,0.11223 -1.85894,-1.073259 0,-1.18549 0.83227,-2.627034 1.85894,-3.219779 1.02666,-0.592745 1.85894,-0.11223 1.85894,1.07326 z"
       style="fill:#ffffff;fill-opacity:1;stroke:none;stroke-width:0.08162" />
  </g>
  <g
     id="g1373"
     transform="matrix(0.89115493,0,0,0.89115493,-106.14237,-1.0080041)"
     style="stroke:none">
    <path
       id="path1363"
       d="m 142.18961,13.209444 15,8.660253 v 17.320508 l -15,-8.660253 z"
       style="fill:none;fill-opacity:1;stroke:none;stroke-width:0.08162" />
    <path
       id="circle1365"
       d="m 147.83067,29.419601 c 0,1.18549 -0.83228,1.666004 -1.85894,1.07326 -1.02667,-0.592745 -1.85894,-2.034289 -1.85894,-3.219779 0,-1.185489 0.83227,-1.666004 1.85894,-1.073259 1.02666,0.592744 1.85894,2.034288 1.85894,3.219778 z"
       style="fill:#ffffff;fill-opacity:1;stroke:none;stroke-width:0.08162" />
    <path
       id="circle1367"
       d="m 155.26643,25.126565 c 0,1.18549 -0.83227,1.666005 -1.85894,1.07326 -1.02666,-0.592745 -1.85894,-2.034289 -1.85894,-3.219779 0,-1.185489 0.83228,-1.666004 1.85894,-1.073259 1.02667,0.592745 1.85894,2.034289 1.85894,3.219778 z"
       style="fill:#ffffff;fill-opacity:1;stroke:none;stroke-width:0.08162" />
    <path
       id="circle1369"
       d="m 155.26643,33.712642 c 0,1.18549 -0.83227,1.666004 -1.85894,1.073259 -1.02666,-0.592744 -1.85894,-2.034288 -1.85894,-3.219778 0,-1.18549 0.83228,-1.666004 1.85894,-1.073259 1.02667,0.592744 1.85894,2.034288 1.85894,3.219778 z"
       style="fill:#ffffff;fill-opacity:1;stroke:none;stroke-width:0.08162" />
    <path
       id="circle1371"
       d="m 147.83067,20.833524 c 0,1.18549 -0.83228,1.666005 -1.85894,1.07326 -1.02667,-0.592745 -1.85894,-2.034289 -1.85894,-3.219778 0,-1.18549 0.83227,-1.666005 1.85894,-1.07326 1.02666,0.592745 1.85894,2.034289 1.85894,3.219778 z"
       style="fill:#ffffff;fill-opacity:1;stroke:none;stroke-width:0.08162" />
  </g>
  <g
     id="g1381"
     transform="matrix(0.89115493,0,0,0.89115493,-54.821465,-17.998584)"
     style="stroke:none">
    <path
       id="path1377"
       d="m 104.60041,66.551102 15,8.660254 v 17.320508 l -15,-8.660254 z"
       style="fill:none;fill-opacity:1;stroke:none;stroke-width:0.08162" />
    <path
       id="circle1379"
       d="m 113.95935,80.614743 c 0,1.18549 -0.83227,1.666005 -1.85894,1.07326 -1.02666,-0.592745 -1.85894,-2.034289 -1.85894,-3.219779 0,-1.185489 0.83228,-1.666004 1.85894,-1.073259 1.02667,0.592745 1.85894,2.034289 1.85894,3.219778 z"
       style="fill:#ffffff;fill-opacity:1;stroke:none;stroke-width:0.08162" />
  </g>
  <g
     id="g1393"
     transform="matrix(0.89115493,0,0,0.89115493,19.045527,7.2186125)"
     style="stroke:none">
    <path
       id="path1387"
       d="m 36.711351,46.914147 14.999999,-8.660254 10e-7,17.320507 -15,8.660255 z"
       style="fill:none;fill-opacity:1;stroke:none;stroke-width:0.08162" />
    <path
       id="circle1389"
       d="m 42.352415,56.610569 c 0,1.18549 -0.832276,2.627034 -1.85894,3.219779 -1.026664,0.592745 -1.85894,0.11223 -1.85894,-1.07326 0,-1.185489 0.832276,-2.627033 1.85894,-3.219778 1.026664,-0.592745 1.85894,-0.112231 1.85894,1.073259 z"
       style="fill:#ffffff;fill-opacity:1;stroke:none;stroke-width:0.08162" />
    <path
       id="circle1391"
       d="m 49.788169,43.731457 c 0,1.18549 -0.832275,2.627034 -1.858939,3.219779 -1.026665,0.592745 -1.85894,0.11223 -1.85894,-1.07326 0,-1.185489 0.832275,-2.627033 1.858939,-3.219778 1.026664,-0.592745 1.85894,-0.11223 1.85894,1.073259 z"
       style="fill:#ffffff;fill-opacity:1;stroke:none;stroke-width:0.08162" />
  </g>
  <g
     id="g1413"
     transform="matrix(0.89115493,0,0,0.89115493,-169.46572,23.925764)"
     style="stroke:none">
    <path
       id="path1399"
       d="m 208.88831,28.166396 15,-8.660252 v 17.320507 l -15,8.660255 z"
       style="fill:none;fill-opacity:1;stroke:none;stroke-width:0.08162" />
    <path
       id="circle1401"
       d="m 214.52937,33.569786 c 0,1.18549 -0.83228,2.627034 -1.85894,3.219778 -1.02667,0.592745 -1.85894,0.112231 -1.85894,-1.073259 0,-1.18549 0.83227,-2.627034 1.85894,-3.219779 1.02666,-0.592745 1.85894,-0.11223 1.85894,1.07326 z"
       style="fill:#ffffff;fill-opacity:1;stroke:none;stroke-width:0.08162" />
    <path
       id="circle1403"
       d="m 214.52937,38.728929 c 0,1.185489 -0.83228,2.627033 -1.85894,3.219778 -1.02667,0.592745 -1.85894,0.112231 -1.85894,-1.073259 0,-1.18549 0.83227,-2.627034 1.85894,-3.219779 1.02666,-0.592745 1.85894,-0.11223 1.85894,1.07326 z"
       style="fill:#ffffff;fill-opacity:1;stroke:none;stroke-width:0.08162" />
    <path
       id="circle1405"
       d="m 221.96513,24.117603 c 0,1.185489 -0.83227,2.627033 -1.85894,3.219778 -1.02666,0.592744 -1.85894,0.11223 -1.85894,-1.07326 0,-1.18549 0.83228,-2.627034 1.85894,-3.219778 1.02667,-0.592745 1.85894,-0.11223 1.85894,1.07326 z"
       style="fill:#ffffff;fill-opacity:1;stroke:none;stroke-width:0.08162" />
    <path
       id="circle1407"
       d="m 221.96513,34.435887 c 0,1.18549 -0.83227,2.627034 -1.85894,3.219779 -1.02666,0.592744 -1.85894,0.11223 -1.85894,-1.07326 0,-1.18549 0.83228,-2.627034 1.85894,-3.219778 1.02667,-0.592745 1.85894,-0.11223 1.85894,1.073259 z"
       style="fill:#ffffff;fill-opacity:1;stroke:none;stroke-width:0.08162" />
    <path
       id="circle1409"
       d="m 214.52937,28.410643 c 0,1.18549 -0.83228,2.627034 -1.85894,3.219779 -1.02667,0.592744 -1.85894,0.11223 -1.85894,-1.07326 0,-1.18549 0.83227,-2.627034 1.85894,-3.219779 1.02666,-0.592744 1.85894,-0.11223 1.85894,1.07326 z"
       style="fill:#ffffff;fill-opacity:1;stroke:none;stroke-width:0.08162" />
    <path
       id="circle1411"
       d="m 221.96513,29.276745 c 0,1.18549 -0.83227,2.627033 -1.85894,3.219778 -1.02666,0.592745 -1.85894,0.11223 -1.85894,-1.073259 0,-1.18549 0.83228,-2.627034 1.85894,-3.219779 1.02667,-0.592745 1.85894,-0.11223 1.85894,1.07326 z"
       style="fill:#ffffff;fill-opacity:1;stroke:none;stroke-width:0.08162" />
  </g>
  <g
     id="g1425"
     transform="matrix(0.89115493,0,0,0.89115493,-97.73016,-2.982619)"
     style="stroke:none">
    <path
       id="path1417"
       d="m 113.391,49.701098 15,8.660252 v 17.32051 l -15,-8.660254 z"
       style="fill:none;fill-opacity:1;stroke:none;stroke-width:0.08162" />
    <path
       id="circle1419"
       d="m 122.74994,63.764738 c 0,1.18549 -0.83227,1.666005 -1.85894,1.07326 -1.02666,-0.592745 -1.85894,-2.034289 -1.85894,-3.219778 0,-1.18549 0.83228,-1.666005 1.85894,-1.07326 1.02667,0.592745 1.85894,2.034289 1.85894,3.219778 z"
       style="fill:#ffffff;fill-opacity:1;stroke:none;stroke-width:0.08162" />
    <path
       id="circle1421"
       d="m 119.03206,65.91126 c 0,1.185489 -0.83227,1.666004 -1.85894,1.073259 -1.02666,-0.592745 -1.85894,-2.034288 -1.85894,-3.219778 0,-1.18549 0.83228,-1.666005 1.85894,-1.07326 1.02667,0.592745 1.85894,2.034289 1.85894,3.219779 z"
       style="fill:#ffffff;fill-opacity:1;stroke:none;stroke-width:0.08162" />
    <path
       id="circle1423"
       d="m 126.46781,61.618214 c 0,1.18549 -0.83227,1.666005 -1.85894,1.07326 -1.02666,-0.592745 -1.85894,-2.034289 -1.85894,-3.219779 0,-1.185489 0.83228,-1.666004 1.85894,-1.073259 1.02667,0.592744 1.85894,2.034288 1.85894,3.219778 z"
       style="fill:#ffffff;fill-opacity:1;stroke:none;stroke-width:0.08162" />
  </g>
</svg>
