<?xml version="1.0" encoding="UTF-8" standalone="no"?>
<!-- Created with Inkscape (http://www.inkscape.org/) -->

<svg
   width="130.89754mm"
   height="50.8074mm"
   viewBox="0 0 130.89754 50.80739"
   version="1.1"
   id="svg5"
   inkscape:version="1.2.2 (b0a8486541, 2022-12-01)"
   sodipodi:docname="header.svg"
   inkscape:export-filename="../../../../tmp/logo.png"
   inkscape:export-xdpi="311.37881"
   inkscape:export-ydpi="311.37881"
   xmlns:inkscape="http://www.inkscape.org/namespaces/inkscape"
   xmlns:sodipodi="http://sodipodi.sourceforge.net/DTD/sodipodi-0.dtd"
   xmlns="http://www.w3.org/2000/svg"
   xmlns:svg="http://www.w3.org/2000/svg">
  <sodipodi:namedview
     id="namedview7"
     pagecolor="#ffffff"
     bordercolor="#666666"
     borderopacity="1.0"
     inkscape:showpageshadow="2"
     inkscape:pageopacity="0.0"
     inkscape:pagecheckerboard="0"
     inkscape:deskcolor="#d1d1d1"
     inkscape:document-units="mm"
     showgrid="false"
     inkscape:zoom="1.0289025"
     inkscape:cx="318.30032"
     inkscape:cy="114.68531"
     inkscape:window-width="1892"
     inkscape:window-height="1145"
     inkscape:window-x="12"
     inkscape:window-y="39"
     inkscape:window-maximized="1"
     inkscape:current-layer="layer1" />
  <defs
     id="defs2">
    <inkscape:path-effect
       effect="perspective-envelope"
       up_left_point="113.391,49.701098"
       up_right_point="128.391,58.36135"
       down_left_point="113.391,67.021606"
       down_right_point="128.391,75.68186"
       id="path-effect1427"
       is_visible="true"
       lpeversion="1"
       deform_type="perspective"
       horizontal_mirror="false"
       vertical_mirror="false"
       overflow_perspective="false" />
    <inkscape:path-effect
       effect="perspective-envelope"
       up_left_point="208.88831,28.166396"
       up_right_point="223.88831,19.506144"
       down_left_point="208.88831,45.486906"
       down_right_point="223.88831,36.826651"
       id="path-effect1415"
       is_visible="true"
       lpeversion="1"
       deform_type="perspective"
       horizontal_mirror="false"
       vertical_mirror="false"
       overflow_perspective="false" />
    <inkscape:path-effect
       effect="perspective-envelope"
       up_left_point="36.711351,46.914147"
       up_right_point="51.71135,38.253893"
       down_left_point="36.711351,64.234655"
       down_right_point="51.711351,55.5744"
       id="path-effect1395"
       is_visible="true"
       lpeversion="1"
       deform_type="perspective"
       horizontal_mirror="false"
       vertical_mirror="false"
       overflow_perspective="false" />
    <inkscape:path-effect
       effect="perspective-envelope"
       up_left_point="104.60041,66.551102"
       up_right_point="119.60041,75.211356"
       down_left_point="104.60041,83.87161"
       down_right_point="119.60041,92.531864"
       id="path-effect1385"
       is_visible="true"
       lpeversion="1"
       deform_type="perspective"
       horizontal_mirror="false"
       vertical_mirror="false"
       overflow_perspective="false" />
    <inkscape:path-effect
       effect="perspective-envelope"
       up_left_point="142.18961,13.209444"
       up_right_point="157.18961,21.869697"
       down_left_point="142.18961,30.529952"
       down_right_point="157.18961,39.190205"
       id="path-effect1375"
       is_visible="true"
       lpeversion="1"
       deform_type="perspective"
       horizontal_mirror="false"
       vertical_mirror="false"
       overflow_perspective="false" />
    <inkscape:path-effect
       effect="perspective-envelope"
       up_left_point="182.58882,28.234567"
       up_right_point="197.58882,19.574313"
       down_left_point="182.58882,45.555075"
       down_right_point="197.58882,36.894821"
       id="path-effect1359"
       is_visible="true"
       lpeversion="1"
       deform_type="perspective"
       horizontal_mirror="false"
       vertical_mirror="false"
       overflow_perspective="false" />
    <inkscape:path-effect
       effect="perspective-envelope"
       up_left_point="90.477193,57.133244"
       up_right_point="105.47719,65.793498"
       down_left_point="75.477194,65.793498"
       down_right_point="90.477194,74.453752"
       id="path-effect1322"
       is_visible="true"
       lpeversion="1"
       deform_type="perspective"
       horizontal_mirror="false"
       vertical_mirror="false"
       overflow_perspective="false" />
    <inkscape:path-effect
       effect="perspective-envelope"
       up_left_point="93.443193,57.133244"
       up_right_point="108.44319,65.793498"
       down_left_point="78.443194,65.793498"
       down_right_point="93.443194,74.45375"
       id="path-effect1310"
       is_visible="true"
       lpeversion="1"
       deform_type="perspective"
       horizontal_mirror="false"
       vertical_mirror="false"
       overflow_perspective="false" />
    <inkscape:path-effect
       effect="perspective-envelope"
       up_left_point="36.426613,23.371794"
       up_right_point="57.944584,23.371794"
       down_left_point="36.426613,44.889765"
       down_right_point="57.944584,44.889765"
       id="path-effect1298"
       is_visible="true"
       lpeversion="1"
       deform_type="perspective"
       horizontal_mirror="false"
       vertical_mirror="false"
       overflow_perspective="false" />
    <inkscape:path-effect
       effect="perspective-envelope"
       up_left_point="84.767116,28.088855"
       up_right_point="99.767116,19.428601"
       down_left_point="99.767117,36.749108"
       down_right_point="114.76712,28.088854"
       id="path-effect1296"
       is_visible="true"
       lpeversion="1"
       deform_type="perspective"
       horizontal_mirror="false"
       vertical_mirror="false"
       overflow_perspective="false" />
    <inkscape:path-effect
       effect="perspective-envelope"
       up_left_point="36.426613,23.371794"
       up_right_point="57.944584,23.371794"
       down_left_point="36.426613,44.889765"
       down_right_point="57.944584,44.889765"
       id="path-effect1203"
       is_visible="true"
       lpeversion="1"
       deform_type="perspective"
       horizontal_mirror="false"
       vertical_mirror="false"
       overflow_perspective="false" />
    <inkscape:path-effect
       effect="perspective-envelope"
       up_left_point="36.426613,23.371794"
       up_right_point="57.944584,23.371794"
       down_left_point="36.426613,44.889765"
       down_right_point="57.944584,44.889765"
       id="path-effect1131"
       is_visible="true"
       lpeversion="1"
       deform_type="perspective"
       horizontal_mirror="false"
       vertical_mirror="false"
       overflow_perspective="false" />
    <inkscape:path-effect
       effect="perspective-envelope"
       up_left_point="36.426613,23.371794"
       up_right_point="57.944584,23.371794"
       down_left_point="36.426613,44.889765"
       down_right_point="57.944584,44.889765"
       id="path-effect1074"
       is_visible="true"
       lpeversion="1"
       deform_type="perspective"
       horizontal_mirror="false"
       vertical_mirror="false"
       overflow_perspective="false" />
  </defs>
  <g
     inkscape:label="Layer 1"
     inkscape:groupmode="layer"
     id="layer1"
     transform="translate(-89.074445,-90.484976)">
    <path
       id="path846"
       style="fill:none;stroke:#000000;stroke-width:2.37687"
       d="m 91.027649,90.544699 -15.845822,-27.445767 31.691643,-10e-7 z"
       transform="matrix(0.9305005,0,0,-0.9305005,29.703516,187.31884)" />
    <path
       id="path788"
       style="fill:#389826;stroke-width:0.08162"
       transform="matrix(0.69787537,0,0,0.69787537,50.878834,52.834361)"
       d="m 91.027649,90.544699 -15.845821,-9.148589 -10e-7,-18.297178 15.845821,-9.14859 15.845822,9.148589 0,18.297178 z" />
    <path
       id="path902"
       style="fill:#9558b2;stroke-width:0.08162"
       transform="matrix(0.69787537,0,0,0.69787537,65.623384,78.103459)"
       d="m 91.027649,90.544699 -15.845821,-9.148589 -10e-7,-18.297178 15.845821,-9.14859 15.845822,9.148589 0,18.297178 z" />
    <path
       id="path904"
       style="fill:#cb3c33;stroke-width:0.08162"
       transform="matrix(0.69787537,0,0,0.69787537,36.606901,78.10346)"
       d="m 91.027649,90.544699 -15.845821,-9.148589 -10e-7,-18.297178 15.845821,-9.14859 15.845822,9.148589 0,18.297178 z" />
    <g
       id="g1292"
       transform="matrix(0.73722724,0,0,0.73722724,40.853754,76.161682)"
       style="stroke:none">
      <path
         id="path1288"
         d="m 84.767116,28.088855 15,-8.660254 15.000004,8.660253 -15.000003,8.660254 z"
         style="fill:none;fill-opacity:1;stroke:none;stroke-width:0.08162" />
      <path
         id="circle1290"
         d="m 101.62606,27.015594 c 1.02666,0.592745 1.02666,1.553774 0,2.146519 -1.02667,0.592745 -2.691218,0.592745 -3.717882,0 -1.026665,-0.592745 -1.026665,-1.553774 0,-2.146519 1.026664,-0.592744 2.691212,-0.592745 3.717882,0 z"
         style="fill:#ffffff;fill-opacity:1;stroke:none;stroke-width:0.08162" />
    </g>
    <g
       id="g1308"
       transform="matrix(0.73722724,0,0,0.73722724,31.243988,73.633892)"
       style="stroke:none">
      <path
         id="path1302"
         d="m 93.443193,57.133244 14.999997,8.660254 -14.999996,8.660252 -15,-8.660252 z"
         style="fill:none;fill-opacity:1;stroke:none;stroke-width:0.08162" />
      <path
         id="circle1304"
         d="m 87.866378,66.86676 c -1.026664,0.592744 -2.691216,0.592744 -3.71788,0 -1.026664,-0.592745 -1.026665,-1.553774 -10e-7,-2.146519 1.026665,-0.592745 2.691216,-0.592745 3.71788,0 1.026665,0.592745 1.026665,1.553774 10e-7,2.146519 z"
         style="fill:#ffffff;fill-opacity:1;stroke:none;stroke-width:0.08162" />
      <path
         id="circle1306"
         d="m 102.73789,66.866757 c -1.02666,0.592744 -2.69121,0.592744 -3.717878,0 -1.026664,-0.592745 -1.026664,-1.553774 0,-2.146519 1.026668,-0.592745 2.691218,-0.592745 3.717878,0 1.02666,0.592745 1.02666,1.553774 0,2.146519 z"
         style="fill:#ffffff;fill-opacity:1;stroke:none;stroke-width:0.08162" />
    </g>
    <g
       id="g1320"
       transform="matrix(0.73722724,0,0,0.73722724,62.447087,73.63389)"
       style="stroke:none">
      <path
         id="path1312"
         d="m 90.477193,57.133244 14.999997,8.660254 -14.999996,8.660254 -15,-8.660254 z"
         style="fill:none;fill-opacity:1;stroke:none;stroke-width:0.08162" />
      <path
         id="circle1314"
         d="m 92.336135,66.866758 c -1.026664,0.592745 -2.691216,0.592745 -3.71788,0 -1.026664,-0.592745 -1.026664,-1.553774 0,-2.146519 1.026664,-0.592745 2.691215,-0.592745 3.717879,0 1.026665,0.592745 1.026665,1.553774 10e-7,2.146519 z"
         style="fill:#ffffff;fill-opacity:1;stroke:none;stroke-width:0.08162" />
      <path
         id="circle1316"
         d="m 84.900378,66.86676 c -1.026665,0.592745 -2.691216,0.592745 -3.71788,0 -1.026664,-0.592745 -1.026665,-1.553774 0,-2.146519 1.026664,-0.592745 2.691215,-0.592745 3.717879,0 1.026665,0.592745 1.026665,1.553774 10e-7,2.146519 z"
         style="fill:#ffffff;fill-opacity:1;stroke:none;stroke-width:0.08162" />
      <path
         id="circle1318"
         d="m 99.771886,66.866754 c -1.026664,0.592744 -2.691215,0.592744 -3.717879,0 -1.026665,-0.592745 -1.026665,-1.553774 -10e-7,-2.146519 1.026664,-0.592745 2.691215,-0.592745 3.717879,0 1.026665,0.592745 1.026665,1.553774 10e-7,2.146519 z"
         style="fill:#ffffff;fill-opacity:1;stroke:none;stroke-width:0.08162" />
    </g>
    <g
       id="g1357"
       transform="matrix(0.73722724,0,0,0.73722724,-20.20466,82.438834)"
       style="stroke:none">
      <path
         id="path1345"
         d="m 182.58882,28.234567 15,-8.660254 v 17.320508 l -15,8.660254 z"
         style="fill:none;fill-opacity:1;stroke:none;stroke-width:0.08162" />
      <path
         id="circle1347"
         d="m 191.94776,31.491432 c 0,1.18549 -0.83227,2.627034 -1.85894,3.219779 -1.02666,0.592745 -1.85894,0.11223 -1.85894,-1.07326 0,-1.18549 0.83228,-2.627033 1.85894,-3.219778 1.02667,-0.592745 1.85894,-0.11223 1.85894,1.073259 z"
         style="fill:#ffffff;fill-opacity:1;stroke:none;stroke-width:0.08162" />
      <path
         id="circle1349"
         d="m 188.22988,37.930991 c 0,1.18549 -0.83228,2.627034 -1.85894,3.219779 -1.02667,0.592745 -1.85894,0.11223 -1.85894,-1.07326 0,-1.185489 0.83227,-2.627033 1.85894,-3.219778 1.02666,-0.592745 1.85894,-0.11223 1.85894,1.073259 z"
         style="fill:#ffffff;fill-opacity:1;stroke:none;stroke-width:0.08162" />
      <path
         id="circle1351"
         d="m 195.66564,25.051873 c 0,1.18549 -0.83227,2.627034 -1.85894,3.219779 -1.02666,0.592744 -1.85894,0.11223 -1.85894,-1.07326 0,-1.18549 0.83228,-2.627033 1.85894,-3.219778 1.02667,-0.592745 1.85894,-0.11223 1.85894,1.073259 z"
         style="fill:#ffffff;fill-opacity:1;stroke:none;stroke-width:0.08162" />
      <path
         id="circle1353"
         d="m 195.66564,33.63795 c 0,1.18549 -0.83227,2.627033 -1.85894,3.219778 -1.02666,0.592745 -1.85894,0.11223 -1.85894,-1.073259 0,-1.18549 0.83228,-2.627034 1.85894,-3.219779 1.02667,-0.592744 1.85894,-0.11223 1.85894,1.07326 z"
         style="fill:#ffffff;fill-opacity:1;stroke:none;stroke-width:0.08162" />
      <path
         id="circle1355"
         d="m 188.22988,29.344915 c 0,1.185489 -0.83228,2.627033 -1.85894,3.219778 -1.02667,0.592745 -1.85894,0.11223 -1.85894,-1.073259 0,-1.18549 0.83227,-2.627034 1.85894,-3.219779 1.02666,-0.592745 1.85894,-0.11223 1.85894,1.07326 z"
         style="fill:#ffffff;fill-opacity:1;stroke:none;stroke-width:0.08162" />
    </g>
    <g
       id="g1373"
       transform="matrix(0.73722724,0,0,0.73722724,-1.4796716,87.13119)"
       style="stroke:none">
      <path
         id="path1363"
         d="m 142.18961,13.209444 15,8.660253 v 17.320508 l -15,-8.660253 z"
         style="fill:none;fill-opacity:1;stroke:none;stroke-width:0.08162" />
      <path
         id="circle1365"
         d="m 147.83067,29.419601 c 0,1.18549 -0.83228,1.666004 -1.85894,1.07326 -1.02667,-0.592745 -1.85894,-2.034289 -1.85894,-3.219779 0,-1.185489 0.83227,-1.666004 1.85894,-1.073259 1.02666,0.592744 1.85894,2.034288 1.85894,3.219778 z"
         style="fill:#ffffff;fill-opacity:1;stroke:none;stroke-width:0.08162" />
      <path
         id="circle1367"
         d="m 155.26643,25.126565 c 0,1.18549 -0.83227,1.666005 -1.85894,1.07326 -1.02666,-0.592745 -1.85894,-2.034289 -1.85894,-3.219779 0,-1.185489 0.83228,-1.666004 1.85894,-1.073259 1.02667,0.592745 1.85894,2.034289 1.85894,3.219778 z"
         style="fill:#ffffff;fill-opacity:1;stroke:none;stroke-width:0.08162" />
      <path
         id="circle1369"
         d="m 155.26643,33.712642 c 0,1.18549 -0.83227,1.666004 -1.85894,1.073259 -1.02666,-0.592744 -1.85894,-2.034288 -1.85894,-3.219778 0,-1.18549 0.83228,-1.666004 1.85894,-1.073259 1.02667,0.592744 1.85894,2.034288 1.85894,3.219778 z"
         style="fill:#ffffff;fill-opacity:1;stroke:none;stroke-width:0.08162" />
      <path
         id="circle1371"
         d="m 147.83067,20.833524 c 0,1.18549 -0.83228,1.666005 -1.85894,1.07326 -1.02667,-0.592745 -1.85894,-2.034289 -1.85894,-3.219778 0,-1.18549 0.83227,-1.666005 1.85894,-1.07326 1.02666,0.592745 1.85894,2.034289 1.85894,3.219778 z"
         style="fill:#ffffff;fill-opacity:1;stroke:none;stroke-width:0.08162" />
    </g>
    <g
       id="g1381"
       transform="matrix(0.73722724,0,0,0.73722724,40.976659,73.075364)"
       style="stroke:none">
      <path
         id="path1377"
         d="m 104.60041,66.551102 15,8.660254 v 17.320508 l -15,-8.660254 z"
         style="fill:none;fill-opacity:1;stroke:none;stroke-width:0.08162" />
      <path
         id="circle1379"
         d="m 113.95935,80.614743 c 0,1.18549 -0.83227,1.666005 -1.85894,1.07326 -1.02666,-0.592745 -1.85894,-2.034289 -1.85894,-3.219779 0,-1.185489 0.83228,-1.666004 1.85894,-1.073259 1.02667,0.592745 1.85894,2.034289 1.85894,3.219778 z"
         style="fill:#ffffff;fill-opacity:1;stroke:none;stroke-width:0.08162" />
    </g>
    <g
       id="g1393"
       transform="matrix(0.73722724,0,0,0.73722724,102.08473,93.936837)"
       style="stroke:none">
      <path
         id="path1387"
         d="m 36.711351,46.914147 14.999999,-8.660254 10e-7,17.320507 -15,8.660255 z"
         style="fill:none;fill-opacity:1;stroke:none;stroke-width:0.08162" />
      <path
         id="circle1389"
         d="m 42.352415,56.610569 c 0,1.18549 -0.832276,2.627034 -1.85894,3.219779 -1.026664,0.592745 -1.85894,0.11223 -1.85894,-1.07326 0,-1.185489 0.832276,-2.627033 1.85894,-3.219778 1.026664,-0.592745 1.85894,-0.112231 1.85894,1.073259 z"
         style="fill:#ffffff;fill-opacity:1;stroke:none;stroke-width:0.08162" />
      <path
         id="circle1391"
         d="m 49.788169,43.731457 c 0,1.18549 -0.832275,2.627034 -1.858939,3.219779 -1.026665,0.592745 -1.85894,0.11223 -1.85894,-1.07326 0,-1.185489 0.832275,-2.627033 1.858939,-3.219778 1.026664,-0.592745 1.85894,-0.11223 1.85894,1.073259 z"
         style="fill:#ffffff;fill-opacity:1;stroke:none;stroke-width:0.08162" />
    </g>
    <g
       id="g1413"
       transform="matrix(0.73722724,0,0,0.73722724,-53.865287,107.75819)"
       style="stroke:none">
      <path
         id="path1399"
         d="m 208.88831,28.166396 15,-8.660252 v 17.320507 l -15,8.660255 z"
         style="fill:none;fill-opacity:1;stroke:none;stroke-width:0.08162" />
      <path
         id="circle1401"
         d="m 214.52937,33.569786 c 0,1.18549 -0.83228,2.627034 -1.85894,3.219778 -1.02667,0.592745 -1.85894,0.112231 -1.85894,-1.073259 0,-1.18549 0.83227,-2.627034 1.85894,-3.219779 1.02666,-0.592745 1.85894,-0.11223 1.85894,1.07326 z"
         style="fill:#ffffff;fill-opacity:1;stroke:none;stroke-width:0.08162" />
      <path
         id="circle1403"
         d="m 214.52937,38.728929 c 0,1.185489 -0.83228,2.627033 -1.85894,3.219778 -1.02667,0.592745 -1.85894,0.112231 -1.85894,-1.073259 0,-1.18549 0.83227,-2.627034 1.85894,-3.219779 1.02666,-0.592745 1.85894,-0.11223 1.85894,1.07326 z"
         style="fill:#ffffff;fill-opacity:1;stroke:none;stroke-width:0.08162" />
      <path
         id="circle1405"
         d="m 221.96513,24.117603 c 0,1.185489 -0.83227,2.627033 -1.85894,3.219778 -1.02666,0.592744 -1.85894,0.11223 -1.85894,-1.07326 0,-1.18549 0.83228,-2.627034 1.85894,-3.219778 1.02667,-0.592745 1.85894,-0.11223 1.85894,1.07326 z"
         style="fill:#ffffff;fill-opacity:1;stroke:none;stroke-width:0.08162" />
      <path
         id="circle1407"
         d="m 221.96513,34.435887 c 0,1.18549 -0.83227,2.627034 -1.85894,3.219779 -1.02666,0.592744 -1.85894,0.11223 -1.85894,-1.07326 0,-1.18549 0.83228,-2.627034 1.85894,-3.219778 1.02667,-0.592745 1.85894,-0.11223 1.85894,1.073259 z"
         style="fill:#ffffff;fill-opacity:1;stroke:none;stroke-width:0.08162" />
      <path
         id="circle1409"
         d="m 214.52937,28.410643 c 0,1.18549 -0.83228,2.627034 -1.85894,3.219779 -1.02667,0.592744 -1.85894,0.11223 -1.85894,-1.07326 0,-1.18549 0.83227,-2.627034 1.85894,-3.219779 1.02666,-0.592744 1.85894,-0.11223 1.85894,1.07326 z"
         style="fill:#ffffff;fill-opacity:1;stroke:none;stroke-width:0.08162" />
      <path
         id="circle1411"
         d="m 221.96513,29.276745 c 0,1.18549 -0.83227,2.627033 -1.85894,3.219778 -1.02666,0.592745 -1.85894,0.11223 -1.85894,-1.073259 0,-1.18549 0.83228,-2.627034 1.85894,-3.219779 1.02667,-0.592745 1.85894,-0.11223 1.85894,1.07326 z"
         style="fill:#ffffff;fill-opacity:1;stroke:none;stroke-width:0.08162" />
    </g>
    <g
       id="g1425"
       transform="matrix(0.73722724,0,0,0.73722724,5.479511,85.497647)"
       style="stroke:none">
      <path
         id="path1417"
         d="m 113.391,49.701098 15,8.660252 0,17.32051 -15,-8.660254 z"
         style="fill:none;fill-opacity:1;stroke:none;stroke-width:0.08162" />
      <path
         id="circle1419"
         d="m 122.74994,63.764738 c 0,1.18549 -0.83227,1.666005 -1.85894,1.07326 -1.02666,-0.592745 -1.85894,-2.034289 -1.85894,-3.219778 0,-1.18549 0.83228,-1.666005 1.85894,-1.07326 1.02667,0.592745 1.85894,2.034289 1.85894,3.219778 z"
         style="fill:#ffffff;fill-opacity:1;stroke:none;stroke-width:0.08162" />
      <path
         id="circle1421"
         d="m 119.03206,65.91126 c 0,1.185489 -0.83227,1.666004 -1.85894,1.073259 -1.02666,-0.592745 -1.85894,-2.034288 -1.85894,-3.219778 0,-1.18549 0.83228,-1.666005 1.85894,-1.07326 1.02667,0.592745 1.85894,2.034289 1.85894,3.219779 z"
         style="fill:#ffffff;fill-opacity:1;stroke:none;stroke-width:0.08162" />
      <path
         id="circle1423"
         d="m 126.46781,61.618214 c 0,1.18549 -0.83227,1.666005 -1.85894,1.07326 -1.02666,-0.592745 -1.85894,-2.034289 -1.85894,-3.219779 0,-1.185489 0.83228,-1.666004 1.85894,-1.073259 1.02667,0.592744 1.85894,2.034288 1.85894,3.219778 z"
         style="fill:#ffffff;fill-opacity:1;stroke:none;stroke-width:0.08162" />
    </g>
    <text
       xml:space="preserve"
       style="font-style:normal;font-variant:normal;font-weight:bold;font-stretch:normal;font-size:22.5778px;font-family:Overpass;-inkscape-font-specification:'Overpass Bold';fill:#000000;stroke-width:0.264583"
       x="149.43889"
       y="123.82811"
       id="text704"><tspan
         sodipodi:role="line"
         id="tspan702"
         style="font-style:normal;font-variant:normal;font-weight:bold;font-stretch:normal;font-size:22.5778px;font-family:Overpass;-inkscape-font-specification:'Overpass Bold';stroke-width:0.264583"
         x="149.43889"
         y="123.82811">Carlo.jl</tspan></text>
  </g>
</svg>
