<?xml version="1.0" encoding="UTF-8" standalone="no"?>
<!-- Created with Inkscape (http://www.inkscape.org/) -->

<svg
   width="130.89754mm"
   height="50.8074mm"
   viewBox="0 0 130.89754 50.80739"
   version="1.1"
   id="svg5"
   xmlns="http://www.w3.org/2000/svg"
   xmlns:svg="http://www.w3.org/2000/svg">
  <defs
     id="defs2" />
  <g
     id="layer1"
     transform="translate(-89.074445,-90.484976)">
    <path
       style="fill:none;fill-opacity:1;stroke:#000000;stroke-width:2.37687;stroke-dasharray:none"
       id="path846"
       d="m 91.027649,90.544699 -15.845822,-27.445767 31.691643,-10e-7 z"
       transform="matrix(0.9305005,0,0,-0.9305005,29.703516,187.31884)" />
    <path
       style="fill:#389826;fill-opacity:1;stroke-width:0.08162"
       id="path788"
       d="m 91.027649,90.544699 -15.845821,-9.148589 -10e-7,-18.297178 15.845821,-9.14859 15.845822,9.148589 0,18.297178 z"
       transform="matrix(0.69787537,0,0,0.69787537,50.878834,52.834361)" />
    <path
       style="fill:#9558b2;fill-opacity:1;stroke-width:0.08162"
       id="path902"
       d="m 91.027649,90.544699 -15.845821,-9.148589 -10e-7,-18.297178 15.845821,-9.14859 15.845822,9.148589 0,18.297178 z"
       transform="matrix(0.69787537,0,0,0.69787537,65.623384,78.103459)" />
    <path
       style="fill:#cb3c33;fill-opacity:1;stroke-width:0.08162"
       id="path904"
       d="m 91.027649,90.544699 -15.845821,-9.148589 -10e-7,-18.297178 15.845821,-9.14859 15.845822,9.148589 0,18.297178 z"
       transform="matrix(0.69787537,0,0,0.69787537,36.606901,78.10346)" />
    <g
       id="g1292"
       transform="matrix(0.73722724,0,0,0.73722724,40.853754,76.161682)"
       style="stroke:none">
      <path
         style="fill:none;fill-opacity:1;stroke:none;stroke-width:0.08162"
         id="path1288"
         width="21.517971"
         height="21.517971"
         x="36.426613"
         y="23.371794"
         d="m 84.767116,28.088855 15,-8.660254 15.000004,8.660253 -15.000003,8.660254 z" />
      <circle
         style="fill:#ffffff;fill-opacity:1;stroke:none;stroke-width:0.08162"
         id="circle1290"
         cx="47.1856"
         cy="34.130779"
         r="2.6667078"
         d="m 101.62606,27.015594 c 1.02666,0.592745 1.02666,1.553774 0,2.146519 -1.02667,0.592745 -2.691218,0.592745 -3.717882,0 -1.026665,-0.592745 -1.026665,-1.553774 0,-2.146519 1.026664,-0.592744 2.691212,-0.592745 3.717882,0 z" />
    </g>
    <g
       id="g1308"
       transform="matrix(0.73722724,0,0,0.73722724,31.243988,73.633892)"
       style="stroke:none">
      <path
         style="fill:none;fill-opacity:1;stroke:none;stroke-width:0.08162"
         id="path1302"
         width="21.517971"
         height="21.517971"
         x="64.241013"
         y="23.132917"
         d="m 93.443193,57.133244 14.999997,8.660254 -14.999996,8.660252 -15,-8.660252 z" />
      <circle
         style="fill:#ffffff;fill-opacity:1;stroke:none;stroke-width:0.08162"
         id="circle1304"
         cx="69.666588"
         cy="39.225319"
         r="2.6667078"
         d="m 87.866378,66.86676 c -1.026664,0.592744 -2.691216,0.592744 -3.71788,0 -1.026664,-0.592745 -1.026665,-1.553774 -10e-7,-2.146519 1.026665,-0.592745 2.691216,-0.592745 3.71788,0 1.026665,0.592745 1.026665,1.553774 10e-7,2.146519 z" />
      <circle
         style="fill:#ffffff;fill-opacity:1;stroke:none;stroke-width:0.08162"
         id="circle1306"
         cx="80.333412"
         cy="28.558487"
         r="2.6667078"
         d="m 102.73789,66.866757 c -1.02666,0.592744 -2.69121,0.592744 -3.717878,0 -1.026664,-0.592745 -1.026664,-1.553774 0,-2.146519 1.026668,-0.592745 2.691218,-0.592745 3.717878,0 1.02666,0.592745 1.02666,1.553774 0,2.146519 z" />
    </g>
    <g
       id="g1320"
       transform="matrix(0.73722724,0,0,0.73722724,62.447087,73.63389)"
       style="stroke:none">
      <path
         style="fill:none;fill-opacity:1;stroke:none;stroke-width:0.08162"
         id="path1312"
         width="21.517971"
         height="21.517971"
         x="96.522125"
         y="23.132917"
         d="m 90.477193,57.133244 14.999997,8.660254 -14.999996,8.660254 -15,-8.660254 z" />
      <circle
         style="fill:#ffffff;fill-opacity:1;stroke:none;stroke-width:0.08162"
         id="circle1314"
         cx="107.28111"
         cy="33.891903"
         r="2.6667078"
         d="m 92.336135,66.866758 c -1.026664,0.592745 -2.691216,0.592745 -3.71788,0 -1.026664,-0.592745 -1.026664,-1.553774 0,-2.146519 1.026664,-0.592745 2.691215,-0.592745 3.717879,0 1.026665,0.592745 1.026665,1.553774 10e-7,2.146519 z" />
      <circle
         style="fill:#ffffff;fill-opacity:1;stroke:none;stroke-width:0.08162"
         id="circle1316"
         cx="101.9477"
         cy="39.225319"
         r="2.6667078"
         d="m 84.900378,66.86676 c -1.026665,0.592745 -2.691216,0.592745 -3.71788,0 -1.026664,-0.592745 -1.026665,-1.553774 0,-2.146519 1.026664,-0.592745 2.691215,-0.592745 3.717879,0 1.026665,0.592745 1.026665,1.553774 10e-7,2.146519 z" />
      <circle
         style="fill:#ffffff;fill-opacity:1;stroke:none;stroke-width:0.08162"
         id="circle1318"
         cx="112.61452"
         cy="28.558487"
         r="2.6667078"
         d="m 99.771886,66.866754 c -1.026664,0.592744 -2.691215,0.592744 -3.717879,0 -1.026665,-0.592745 -1.026665,-1.553774 -10e-7,-2.146519 1.026664,-0.592745 2.691215,-0.592745 3.717879,0 1.026665,0.592745 1.026665,1.553774 10e-7,2.146519 z" />
    </g>
    <g
       id="g1357"
       transform="matrix(0.73722724,0,0,0.73722724,-20.20466,82.438834)"
       style="stroke:none">
      <path
         style="fill:none;fill-opacity:1;stroke:none;stroke-width:0.08162"
         id="path1345"
         width="21.517971"
         height="21.517971"
         x="220.21124"
         y="11.110712"
         d="m 182.58882,28.234567 15,-8.660254 v 17.320508 l -15,8.660254 z" />
      <circle
         style="fill:#ffffff;fill-opacity:1;stroke:none;stroke-width:0.08162"
         id="circle1347"
         cx="230.97023"
         cy="21.869696"
         r="2.6667078"
         d="m 191.94776,31.491432 c 0,1.18549 -0.83227,2.627034 -1.85894,3.219779 -1.02666,0.592745 -1.85894,0.11223 -1.85894,-1.07326 0,-1.18549 0.83228,-2.627033 1.85894,-3.219778 1.02667,-0.592745 1.85894,-0.11223 1.85894,1.073259 z" />
      <circle
         style="fill:#ffffff;fill-opacity:1;stroke:none;stroke-width:0.08162"
         id="circle1349"
         cx="225.63681"
         cy="27.203112"
         r="2.6667078"
         d="m 188.22988,37.930991 c 0,1.18549 -0.83228,2.627034 -1.85894,3.219779 -1.02667,0.592745 -1.85894,0.11223 -1.85894,-1.07326 0,-1.185489 0.83227,-2.627033 1.85894,-3.219778 1.02666,-0.592745 1.85894,-0.11223 1.85894,1.073259 z" />
      <circle
         style="fill:#ffffff;fill-opacity:1;stroke:none;stroke-width:0.08162"
         id="circle1351"
         cx="236.30365"
         cy="16.53628"
         r="2.6667078"
         d="m 195.66564,25.051873 c 0,1.18549 -0.83227,2.627034 -1.85894,3.219779 -1.02666,0.592744 -1.85894,0.11223 -1.85894,-1.07326 0,-1.18549 0.83228,-2.627033 1.85894,-3.219778 1.02667,-0.592745 1.85894,-0.11223 1.85894,1.073259 z" />
      <circle
         style="fill:#ffffff;fill-opacity:1;stroke:none;stroke-width:0.08162"
         id="circle1353"
         cx="236.30365"
         cy="27.203112"
         r="2.6667078"
         d="m 195.66564,33.63795 c 0,1.18549 -0.83227,2.627033 -1.85894,3.219778 -1.02666,0.592745 -1.85894,0.11223 -1.85894,-1.073259 0,-1.18549 0.83228,-2.627034 1.85894,-3.219779 1.02667,-0.592744 1.85894,-0.11223 1.85894,1.07326 z" />
      <circle
         style="fill:#ffffff;fill-opacity:1;stroke:none;stroke-width:0.08162"
         id="circle1355"
         cx="225.63681"
         cy="16.53628"
         r="2.6667078"
         d="m 188.22988,29.344915 c 0,1.185489 -0.83228,2.627033 -1.85894,3.219778 -1.02667,0.592745 -1.85894,0.11223 -1.85894,-1.073259 0,-1.18549 0.83227,-2.627034 1.85894,-3.219779 1.02666,-0.592745 1.85894,-0.11223 1.85894,1.07326 z" />
    </g>
    <g
       id="g1373"
       transform="matrix(0.73722724,0,0,0.73722724,-1.4796716,87.13119)"
       style="stroke:none">
      <path
         style="fill:none;fill-opacity:1;stroke:none;stroke-width:0.08162"
         id="path1363"
         width="21.517971"
         height="21.517971"
         x="189.33559"
         y="11.110712"
         d="m 142.18961,13.209444 15,8.660253 v 17.320508 l -15,-8.660253 z" />
      <circle
         style="fill:#ffffff;fill-opacity:1;stroke:none;stroke-width:0.08162"
         id="circle1365"
         cx="194.76115"
         cy="27.203112"
         r="2.6667078"
         d="m 147.83067,29.419601 c 0,1.18549 -0.83228,1.666004 -1.85894,1.07326 -1.02667,-0.592745 -1.85894,-2.034289 -1.85894,-3.219779 0,-1.185489 0.83227,-1.666004 1.85894,-1.073259 1.02666,0.592744 1.85894,2.034288 1.85894,3.219778 z" />
      <circle
         style="fill:#ffffff;fill-opacity:1;stroke:none;stroke-width:0.08162"
         id="circle1367"
         cx="205.42799"
         cy="16.53628"
         r="2.6667078"
         d="m 155.26643,25.126565 c 0,1.18549 -0.83227,1.666005 -1.85894,1.07326 -1.02666,-0.592745 -1.85894,-2.034289 -1.85894,-3.219779 0,-1.185489 0.83228,-1.666004 1.85894,-1.073259 1.02667,0.592745 1.85894,2.034289 1.85894,3.219778 z" />
      <circle
         style="fill:#ffffff;fill-opacity:1;stroke:none;stroke-width:0.08162"
         id="circle1369"
         cx="205.42799"
         cy="27.203112"
         r="2.6667078"
         d="m 155.26643,33.712642 c 0,1.18549 -0.83227,1.666004 -1.85894,1.073259 -1.02666,-0.592744 -1.85894,-2.034288 -1.85894,-3.219778 0,-1.18549 0.83228,-1.666004 1.85894,-1.073259 1.02667,0.592744 1.85894,2.034288 1.85894,3.219778 z" />
      <circle
         style="fill:#ffffff;fill-opacity:1;stroke:none;stroke-width:0.08162"
         id="circle1371"
         cx="194.76115"
         cy="16.53628"
         r="2.6667078"
         d="m 147.83067,20.833524 c 0,1.18549 -0.83228,1.666005 -1.85894,1.07326 -1.02667,-0.592745 -1.85894,-2.034289 -1.85894,-3.219778 0,-1.18549 0.83227,-1.666005 1.85894,-1.07326 1.02666,0.592745 1.85894,2.034289 1.85894,3.219778 z" />
    </g>
    <g
       id="g1381"
       transform="matrix(0.73722724,0,0,0.73722724,40.976659,73.075364)"
       style="stroke:none">
      <path
         style="fill:none;fill-opacity:1;stroke:none;stroke-width:0.08162"
         id="path1377"
         width="21.517971"
         height="21.517971"
         x="36.426613"
         y="23.371794"
         d="m 104.60041,66.551102 15,8.660254 v 17.320508 l -15,-8.660254 z" />
      <circle
         style="fill:#ffffff;fill-opacity:1;stroke:none;stroke-width:0.08162"
         id="circle1379"
         cx="47.1856"
         cy="34.130779"
         r="2.6667078"
         d="m 113.95935,80.614743 c 0,1.18549 -0.83227,1.666005 -1.85894,1.07326 -1.02666,-0.592745 -1.85894,-2.034289 -1.85894,-3.219779 0,-1.185489 0.83228,-1.666004 1.85894,-1.073259 1.02667,0.592745 1.85894,2.034289 1.85894,3.219778 z" />
    </g>
    <g
       id="g1393"
       transform="matrix(0.73722724,0,0,0.73722724,102.08473,93.936837)"
       style="stroke:none">
      <path
         style="fill:none;fill-opacity:1;stroke:none;stroke-width:0.08162"
         id="path1387"
         width="21.517971"
         height="21.517971"
         x="64.241013"
         y="23.132917"
         d="m 36.711351,46.914147 14.999999,-8.660254 10e-7,17.320507 -15,8.660255 z" />
      <circle
         style="fill:#ffffff;fill-opacity:1;stroke:none;stroke-width:0.08162"
         id="circle1389"
         cx="69.666588"
         cy="39.225319"
         r="2.6667078"
         d="m 42.352415,56.610569 c 0,1.18549 -0.832276,2.627034 -1.85894,3.219779 -1.026664,0.592745 -1.85894,0.11223 -1.85894,-1.07326 0,-1.185489 0.832276,-2.627033 1.85894,-3.219778 1.026664,-0.592745 1.85894,-0.112231 1.85894,1.073259 z" />
      <circle
         style="fill:#ffffff;fill-opacity:1;stroke:none;stroke-width:0.08162"
         id="circle1391"
         cx="80.333412"
         cy="28.558487"
         r="2.6667078"
         d="m 49.788169,43.731457 c 0,1.18549 -0.832275,2.627034 -1.858939,3.219779 -1.026665,0.592745 -1.85894,0.11223 -1.85894,-1.07326 0,-1.185489 0.832275,-2.627033 1.858939,-3.219778 1.026664,-0.592745 1.85894,-0.11223 1.85894,1.073259 z" />
    </g>
    <g
       id="g1413"
       transform="matrix(0.73722724,0,0,0.73722724,-53.865287,107.75819)"
       style="stroke:none">
      <path
         style="fill:none;fill-opacity:1;stroke:none;stroke-width:0.08162"
         id="path1399"
         width="21.517971"
         height="21.517971"
         x="220.21124"
         y="41.911011"
         d="m 208.88831,28.166396 15,-8.660252 v 17.320507 l -15,8.660255 z" />
      <circle
         style="fill:#ffffff;fill-opacity:1;stroke:none;stroke-width:0.08162"
         id="circle1401"
         cx="225.63681"
         cy="52.669998"
         r="2.6667078"
         d="m 214.52937,33.569786 c 0,1.18549 -0.83228,2.627034 -1.85894,3.219778 -1.02667,0.592745 -1.85894,0.112231 -1.85894,-1.073259 0,-1.18549 0.83227,-2.627034 1.85894,-3.219779 1.02666,-0.592745 1.85894,-0.11223 1.85894,1.07326 z" />
      <circle
         style="fill:#ffffff;fill-opacity:1;stroke:none;stroke-width:0.08162"
         id="circle1403"
         cx="225.63681"
         cy="59.079411"
         r="2.6667078"
         d="m 214.52937,38.728929 c 0,1.185489 -0.83228,2.627033 -1.85894,3.219778 -1.02667,0.592745 -1.85894,0.112231 -1.85894,-1.073259 0,-1.18549 0.83227,-2.627034 1.85894,-3.219779 1.02666,-0.592745 1.85894,-0.11223 1.85894,1.07326 z" />
      <circle
         style="fill:#ffffff;fill-opacity:1;stroke:none;stroke-width:0.08162"
         id="circle1405"
         cx="236.30365"
         cy="46.260586"
         r="2.6667078"
         d="m 221.96513,24.117603 c 0,1.185489 -0.83227,2.627033 -1.85894,3.219778 -1.02666,0.592744 -1.85894,0.11223 -1.85894,-1.07326 0,-1.18549 0.83228,-2.627034 1.85894,-3.219778 1.02667,-0.592745 1.85894,-0.11223 1.85894,1.07326 z" />
      <circle
         style="fill:#ffffff;fill-opacity:1;stroke:none;stroke-width:0.08162"
         id="circle1407"
         cx="236.30365"
         cy="59.079411"
         r="2.6667078"
         d="m 221.96513,34.435887 c 0,1.18549 -0.83227,2.627034 -1.85894,3.219779 -1.02666,0.592744 -1.85894,0.11223 -1.85894,-1.07326 0,-1.18549 0.83228,-2.627034 1.85894,-3.219778 1.02667,-0.592745 1.85894,-0.11223 1.85894,1.073259 z" />
      <circle
         style="fill:#ffffff;fill-opacity:1;stroke:none;stroke-width:0.08162"
         id="circle1409"
         cx="225.63681"
         cy="46.260586"
         r="2.6667078"
         d="m 214.52937,28.410643 c 0,1.18549 -0.83228,2.627034 -1.85894,3.219779 -1.02667,0.592744 -1.85894,0.11223 -1.85894,-1.07326 0,-1.18549 0.83227,-2.627034 1.85894,-3.219779 1.02666,-0.592744 1.85894,-0.11223 1.85894,1.07326 z" />
      <circle
         style="fill:#ffffff;fill-opacity:1;stroke:none;stroke-width:0.08162"
         id="circle1411"
         cx="236.30365"
         cy="52.669998"
         r="2.6667078"
         d="m 221.96513,29.276745 c 0,1.18549 -0.83227,2.627033 -1.85894,3.219778 -1.02666,0.592745 -1.85894,0.11223 -1.85894,-1.073259 0,-1.18549 0.83228,-2.627034 1.85894,-3.219779 1.02667,-0.592745 1.85894,-0.11223 1.85894,1.07326 z" />
    </g>
    <g
       id="g1425"
       transform="matrix(0.73722724,0,0,0.73722724,5.479511,85.497647)"
       style="stroke:none">
      <path
         style="fill:none;fill-opacity:1;stroke:none;stroke-width:0.08162"
         id="path1417"
         width="21.517971"
         height="21.517971"
         x="96.522125"
         y="23.132917"
         d="m 113.391,49.701098 15,8.660252 0,17.32051 -15,-8.660254 z" />
      <circle
         style="fill:#ffffff;fill-opacity:1;stroke:none;stroke-width:0.08162"
         id="circle1419"
         cx="107.28111"
         cy="33.891903"
         r="2.6667078"
         d="m 122.74994,63.764738 c 0,1.18549 -0.83227,1.666005 -1.85894,1.07326 -1.02666,-0.592745 -1.85894,-2.034289 -1.85894,-3.219778 0,-1.18549 0.83228,-1.666005 1.85894,-1.07326 1.02667,0.592745 1.85894,2.034289 1.85894,3.219778 z" />
      <circle
         style="fill:#ffffff;fill-opacity:1;stroke:none;stroke-width:0.08162"
         id="circle1421"
         cx="101.9477"
         cy="39.225319"
         r="2.6667078"
         d="m 119.03206,65.91126 c 0,1.185489 -0.83227,1.666004 -1.85894,1.073259 -1.02666,-0.592745 -1.85894,-2.034288 -1.85894,-3.219778 0,-1.18549 0.83228,-1.666005 1.85894,-1.07326 1.02667,0.592745 1.85894,2.034289 1.85894,3.219779 z" />
      <circle
         style="fill:#ffffff;fill-opacity:1;stroke:none;stroke-width:0.08162"
         id="circle1423"
         cx="112.61452"
         cy="28.558487"
         r="2.6667078"
         d="m 126.46781,61.618214 c 0,1.18549 -0.83227,1.666005 -1.85894,1.07326 -1.02666,-0.592745 -1.85894,-2.034289 -1.85894,-3.219779 0,-1.185489 0.83228,-1.666004 1.85894,-1.073259 1.02667,0.592744 1.85894,2.034288 1.85894,3.219778 z" />
    </g>
    <text
       xml:space="preserve"
       style="font-style:normal;font-variant:normal;font-weight:bold;font-stretch:normal;font-size:22.5778px;font-family:Overpass;-inkscape-font-specification:'Overpass Bold';fill:#000000;stroke-width:0.264583"
       x="149.43889"
       y="123.82811"
       id="text704"><tspan
         id="tspan702"
         style="font-style:normal;font-variant:normal;font-weight:bold;font-stretch:normal;font-size:22.5778px;font-family:Overpass;-inkscape-font-specification:'Overpass Bold';stroke-width:0.264583"
         x="149.43889"
         y="123.82811">Carlo.jl</tspan></text>
  </g>
</svg>
